<mxfile host="app.diagrams.net" modified="2023-06-14T06:11:08.511Z" agent="Mozilla/5.0 (Macintosh; Intel Mac OS X 10_15_7) AppleWebKit/537.36 (KHTML, like Gecko) Chrome/114.0.0.0 Safari/537.36" etag="XTagdQO_lYv82N0T1fNE" version="21.3.2" type="github">
  <diagram name="第 1 页" id="vNLDc5i9Rt-sk_Q8lJ6u">
    <mxGraphModel dx="952" dy="639" grid="1" gridSize="10" guides="1" tooltips="1" connect="1" arrows="1" fold="1" page="1" pageScale="1" pageWidth="827" pageHeight="1169" math="0" shadow="0">
      <root>
        <mxCell id="0" />
        <mxCell id="1" parent="0" />
        <mxCell id="w4B59_CVPUAiN3qROytd-1" value="&lt;div style=&quot;&quot;&gt;&lt;span style=&quot;font-family: Verdana; background-color: initial;&quot;&gt;Node1&lt;/span&gt;&lt;/div&gt;" style="rounded=1;whiteSpace=wrap;html=1;arcSize=7;align=center;labelPosition=center;verticalLabelPosition=middle;verticalAlign=top;" vertex="1" parent="1">
          <mxGeometry x="160" y="110" width="450" height="400" as="geometry" />
        </mxCell>
        <mxCell id="w4B59_CVPUAiN3qROytd-3" value="&lt;div style=&quot;&quot;&gt;&lt;font face=&quot;Verdana&quot;&gt;POD A&lt;/font&gt;&lt;/div&gt;" style="rounded=1;whiteSpace=wrap;html=1;arcSize=7;align=center;labelPosition=center;verticalLabelPosition=middle;verticalAlign=top;" vertex="1" parent="1">
          <mxGeometry x="200" y="170" width="160" height="160" as="geometry" />
        </mxCell>
        <mxCell id="w4B59_CVPUAiN3qROytd-7" value="&lt;div style=&quot;&quot;&gt;&lt;font face=&quot;Verdana&quot;&gt;POD B&lt;/font&gt;&lt;/div&gt;" style="rounded=1;whiteSpace=wrap;html=1;arcSize=7;align=center;labelPosition=center;verticalLabelPosition=middle;verticalAlign=top;" vertex="1" parent="1">
          <mxGeometry x="404" y="170" width="160" height="160" as="geometry" />
        </mxCell>
        <mxCell id="w4B59_CVPUAiN3qROytd-16" style="edgeStyle=orthogonalEdgeStyle;rounded=0;orthogonalLoop=1;jettySize=auto;html=1;entryX=0.5;entryY=0;entryDx=0;entryDy=0;startArrow=none;startFill=0;endArrow=none;endFill=0;dashed=1;" edge="1" parent="1" source="w4B59_CVPUAiN3qROytd-9" target="w4B59_CVPUAiN3qROytd-14">
          <mxGeometry relative="1" as="geometry" />
        </mxCell>
        <mxCell id="w4B59_CVPUAiN3qROytd-9" value="&lt;div style=&quot;&quot;&gt;&lt;font face=&quot;Verdana&quot;&gt;eth0&lt;/font&gt;&lt;/div&gt;" style="rounded=1;whiteSpace=wrap;html=1;arcSize=20;align=center;labelPosition=center;verticalLabelPosition=middle;verticalAlign=top;" vertex="1" parent="1">
          <mxGeometry x="267" y="300" width="70" height="30" as="geometry" />
        </mxCell>
        <mxCell id="w4B59_CVPUAiN3qROytd-17" style="edgeStyle=orthogonalEdgeStyle;rounded=0;orthogonalLoop=1;jettySize=auto;html=1;entryX=0.5;entryY=0;entryDx=0;entryDy=0;startArrow=none;startFill=0;endArrow=none;endFill=0;dashed=1;" edge="1" parent="1" source="w4B59_CVPUAiN3qROytd-11" target="w4B59_CVPUAiN3qROytd-15">
          <mxGeometry relative="1" as="geometry" />
        </mxCell>
        <mxCell id="w4B59_CVPUAiN3qROytd-11" value="&lt;div style=&quot;&quot;&gt;&lt;font face=&quot;Verdana&quot;&gt;eth0&lt;/font&gt;&lt;/div&gt;" style="rounded=1;whiteSpace=wrap;html=1;arcSize=20;align=center;labelPosition=center;verticalLabelPosition=middle;verticalAlign=top;" vertex="1" parent="1">
          <mxGeometry x="471" y="300" width="70" height="30" as="geometry" />
        </mxCell>
        <mxCell id="w4B59_CVPUAiN3qROytd-13" value="&lt;div style=&quot;&quot;&gt;&lt;font face=&quot;Verdana&quot;&gt;eth0&lt;/font&gt;&lt;/div&gt;" style="rounded=1;whiteSpace=wrap;html=1;arcSize=20;align=center;labelPosition=center;verticalLabelPosition=middle;verticalAlign=top;" vertex="1" parent="1">
          <mxGeometry x="430" y="480" width="70" height="30" as="geometry" />
        </mxCell>
        <mxCell id="w4B59_CVPUAiN3qROytd-14" value="&lt;div style=&quot;&quot;&gt;&lt;font face=&quot;Verdana&quot;&gt;lxc0&lt;/font&gt;&lt;/div&gt;" style="rounded=1;whiteSpace=wrap;html=1;arcSize=20;align=center;labelPosition=center;verticalLabelPosition=middle;verticalAlign=top;" vertex="1" parent="1">
          <mxGeometry x="267" y="360" width="70" height="30" as="geometry" />
        </mxCell>
        <mxCell id="w4B59_CVPUAiN3qROytd-15" value="&lt;div style=&quot;&quot;&gt;&lt;font face=&quot;Verdana&quot;&gt;lxc1&lt;/font&gt;&lt;/div&gt;" style="rounded=1;whiteSpace=wrap;html=1;arcSize=20;align=center;labelPosition=center;verticalLabelPosition=middle;verticalAlign=top;" vertex="1" parent="1">
          <mxGeometry x="471" y="360" width="70" height="30" as="geometry" />
        </mxCell>
        <mxCell id="w4B59_CVPUAiN3qROytd-19" value="&lt;div style=&quot;&quot;&gt;&lt;span style=&quot;font-family: Verdana; background-color: initial;&quot;&gt;Node1&lt;/span&gt;&lt;/div&gt;" style="rounded=1;whiteSpace=wrap;html=1;arcSize=7;align=center;labelPosition=center;verticalLabelPosition=middle;verticalAlign=top;" vertex="1" parent="1">
          <mxGeometry x="145" y="760" width="605" height="370" as="geometry" />
        </mxCell>
        <mxCell id="w4B59_CVPUAiN3qROytd-20" value="&lt;div style=&quot;&quot;&gt;&lt;font face=&quot;Verdana&quot;&gt;POD A&lt;/font&gt;&lt;/div&gt;" style="rounded=1;whiteSpace=wrap;html=1;arcSize=7;align=center;labelPosition=center;verticalLabelPosition=middle;verticalAlign=top;" vertex="1" parent="1">
          <mxGeometry x="185" y="800" width="250" height="160" as="geometry" />
        </mxCell>
        <mxCell id="w4B59_CVPUAiN3qROytd-22" style="edgeStyle=orthogonalEdgeStyle;rounded=0;orthogonalLoop=1;jettySize=auto;html=1;entryX=0.5;entryY=0;entryDx=0;entryDy=0;startArrow=none;startFill=0;endArrow=none;endFill=0;dashed=1;" edge="1" source="w4B59_CVPUAiN3qROytd-23" target="w4B59_CVPUAiN3qROytd-28" parent="1">
          <mxGeometry relative="1" as="geometry" />
        </mxCell>
        <mxCell id="w4B59_CVPUAiN3qROytd-23" value="&lt;div style=&quot;&quot;&gt;&lt;font face=&quot;Verdana&quot;&gt;eth0&lt;/font&gt;&lt;/div&gt;" style="rounded=1;whiteSpace=wrap;html=1;arcSize=20;align=center;labelPosition=center;verticalLabelPosition=middle;verticalAlign=top;" vertex="1" parent="1">
          <mxGeometry x="302" y="930" width="70" height="30" as="geometry" />
        </mxCell>
        <mxCell id="w4B59_CVPUAiN3qROytd-28" value="&lt;div style=&quot;&quot;&gt;&lt;font face=&quot;Verdana&quot;&gt;lxc0&lt;/font&gt;&lt;/div&gt;" style="rounded=1;whiteSpace=wrap;html=1;arcSize=20;align=center;labelPosition=center;verticalLabelPosition=middle;verticalAlign=top;" vertex="1" parent="1">
          <mxGeometry x="302" y="1020" width="70" height="30" as="geometry" />
        </mxCell>
        <mxCell id="w4B59_CVPUAiN3qROytd-32" value="&lt;div style=&quot;&quot;&gt;&lt;font face=&quot;Verdana&quot;&gt;APP&lt;/font&gt;&lt;/div&gt;" style="rounded=1;whiteSpace=wrap;html=1;arcSize=20;align=center;labelPosition=center;verticalLabelPosition=middle;verticalAlign=top;" vertex="1" parent="1">
          <mxGeometry x="205" y="840" width="50" height="30" as="geometry" />
        </mxCell>
        <mxCell id="w4B59_CVPUAiN3qROytd-33" value="&lt;div style=&quot;&quot;&gt;&lt;font face=&quot;Verdana&quot;&gt;Service Mesh Proxy&lt;/font&gt;&lt;/div&gt;" style="rounded=1;whiteSpace=wrap;html=1;arcSize=20;align=center;labelPosition=center;verticalLabelPosition=middle;verticalAlign=top;" vertex="1" parent="1">
          <mxGeometry x="272" y="840" width="143" height="30" as="geometry" />
        </mxCell>
        <mxCell id="w4B59_CVPUAiN3qROytd-34" value="&lt;div style=&quot;&quot;&gt;&lt;font face=&quot;Verdana&quot;&gt;loopback&lt;/font&gt;&lt;/div&gt;" style="rounded=1;whiteSpace=wrap;html=1;arcSize=20;align=center;labelPosition=center;verticalLabelPosition=middle;verticalAlign=top;" vertex="1" parent="1">
          <mxGeometry x="205" y="930" width="70" height="30" as="geometry" />
        </mxCell>
        <mxCell id="w4B59_CVPUAiN3qROytd-35" value="&lt;div style=&quot;&quot;&gt;&lt;font face=&quot;Verdana&quot;&gt;POD B&lt;/font&gt;&lt;/div&gt;" style="rounded=1;whiteSpace=wrap;html=1;arcSize=7;align=center;labelPosition=center;verticalLabelPosition=middle;verticalAlign=top;" vertex="1" parent="1">
          <mxGeometry x="465" y="800" width="250" height="160" as="geometry" />
        </mxCell>
        <mxCell id="w4B59_CVPUAiN3qROytd-36" style="edgeStyle=orthogonalEdgeStyle;rounded=0;orthogonalLoop=1;jettySize=auto;html=1;entryX=0.5;entryY=0;entryDx=0;entryDy=0;startArrow=none;startFill=0;endArrow=none;endFill=0;dashed=1;" edge="1" source="w4B59_CVPUAiN3qROytd-37" target="w4B59_CVPUAiN3qROytd-38" parent="1">
          <mxGeometry relative="1" as="geometry" />
        </mxCell>
        <mxCell id="w4B59_CVPUAiN3qROytd-37" value="&lt;div style=&quot;&quot;&gt;&lt;font face=&quot;Verdana&quot;&gt;eth0&lt;/font&gt;&lt;/div&gt;" style="rounded=1;whiteSpace=wrap;html=1;arcSize=20;align=center;labelPosition=center;verticalLabelPosition=middle;verticalAlign=top;" vertex="1" parent="1">
          <mxGeometry x="582" y="930" width="70" height="30" as="geometry" />
        </mxCell>
        <mxCell id="w4B59_CVPUAiN3qROytd-38" value="&lt;div style=&quot;&quot;&gt;&lt;font face=&quot;Verdana&quot;&gt;lxc1&lt;/font&gt;&lt;/div&gt;" style="rounded=1;whiteSpace=wrap;html=1;arcSize=20;align=center;labelPosition=center;verticalLabelPosition=middle;verticalAlign=top;" vertex="1" parent="1">
          <mxGeometry x="582" y="1020" width="70" height="30" as="geometry" />
        </mxCell>
        <mxCell id="w4B59_CVPUAiN3qROytd-39" value="&lt;div style=&quot;&quot;&gt;&lt;font face=&quot;Verdana&quot;&gt;APP&lt;/font&gt;&lt;/div&gt;" style="rounded=1;whiteSpace=wrap;html=1;arcSize=20;align=center;labelPosition=center;verticalLabelPosition=middle;verticalAlign=top;" vertex="1" parent="1">
          <mxGeometry x="485" y="840" width="50" height="30" as="geometry" />
        </mxCell>
        <mxCell id="w4B59_CVPUAiN3qROytd-40" value="&lt;div style=&quot;&quot;&gt;&lt;font face=&quot;Verdana&quot;&gt;Service Mesh Proxy&lt;/font&gt;&lt;/div&gt;" style="rounded=1;whiteSpace=wrap;html=1;arcSize=20;align=center;labelPosition=center;verticalLabelPosition=middle;verticalAlign=top;" vertex="1" parent="1">
          <mxGeometry x="552" y="840" width="143" height="30" as="geometry" />
        </mxCell>
        <mxCell id="w4B59_CVPUAiN3qROytd-41" value="&lt;div style=&quot;&quot;&gt;&lt;font face=&quot;Verdana&quot;&gt;loopback&lt;/font&gt;&lt;/div&gt;" style="rounded=1;whiteSpace=wrap;html=1;arcSize=20;align=center;labelPosition=center;verticalLabelPosition=middle;verticalAlign=top;" vertex="1" parent="1">
          <mxGeometry x="485" y="930" width="70" height="30" as="geometry" />
        </mxCell>
        <mxCell id="w4B59_CVPUAiN3qROytd-42" value="&lt;div style=&quot;&quot;&gt;&lt;font face=&quot;Verdana&quot;&gt;eth0&lt;/font&gt;&lt;/div&gt;" style="rounded=1;whiteSpace=wrap;html=1;arcSize=20;align=center;labelPosition=center;verticalLabelPosition=middle;verticalAlign=top;" vertex="1" parent="1">
          <mxGeometry x="512" y="1100" width="70" height="30" as="geometry" />
        </mxCell>
        <mxCell id="w4B59_CVPUAiN3qROytd-43" value="&lt;font face=&quot;Verdana&quot;&gt;Container&lt;/font&gt;" style="rounded=1;whiteSpace=wrap;html=1;arcSize=20;align=center;labelPosition=center;verticalLabelPosition=middle;verticalAlign=top;" vertex="1" parent="1">
          <mxGeometry x="223.75" y="210" width="111.5" height="30" as="geometry" />
        </mxCell>
        <mxCell id="w4B59_CVPUAiN3qROytd-44" value="&lt;font face=&quot;Verdana&quot;&gt;...&lt;/font&gt;" style="rounded=1;whiteSpace=wrap;html=1;arcSize=20;align=center;labelPosition=center;verticalLabelPosition=middle;verticalAlign=top;" vertex="1" parent="1">
          <mxGeometry x="223.75" y="250" width="111.5" height="30" as="geometry" />
        </mxCell>
        <mxCell id="w4B59_CVPUAiN3qROytd-45" value="&lt;font face=&quot;Verdana&quot;&gt;Container&lt;/font&gt;" style="rounded=1;whiteSpace=wrap;html=1;arcSize=20;align=center;labelPosition=center;verticalLabelPosition=middle;verticalAlign=top;" vertex="1" parent="1">
          <mxGeometry x="429.5" y="210" width="111.5" height="30" as="geometry" />
        </mxCell>
        <mxCell id="w4B59_CVPUAiN3qROytd-46" value="&lt;font face=&quot;Verdana&quot;&gt;...&lt;/font&gt;" style="rounded=1;whiteSpace=wrap;html=1;arcSize=20;align=center;labelPosition=center;verticalLabelPosition=middle;verticalAlign=top;" vertex="1" parent="1">
          <mxGeometry x="429.5" y="250" width="111.5" height="30" as="geometry" />
        </mxCell>
        <mxCell id="w4B59_CVPUAiN3qROytd-47" value="&lt;div style=&quot;&quot;&gt;&lt;span style=&quot;font-family: Verdana; background-color: initial;&quot;&gt;Node2&lt;/span&gt;&lt;/div&gt;" style="rounded=1;whiteSpace=wrap;html=1;arcSize=7;align=center;labelPosition=center;verticalLabelPosition=middle;verticalAlign=top;" vertex="1" parent="1">
          <mxGeometry x="670" y="110" width="450" height="400" as="geometry" />
        </mxCell>
        <mxCell id="w4B59_CVPUAiN3qROytd-48" value="&lt;div style=&quot;&quot;&gt;&lt;font face=&quot;Verdana&quot;&gt;POD C&lt;/font&gt;&lt;/div&gt;" style="rounded=1;whiteSpace=wrap;html=1;arcSize=7;align=center;labelPosition=center;verticalLabelPosition=middle;verticalAlign=top;" vertex="1" parent="1">
          <mxGeometry x="710" y="170" width="160" height="160" as="geometry" />
        </mxCell>
        <mxCell id="w4B59_CVPUAiN3qROytd-49" value="&lt;div style=&quot;&quot;&gt;&lt;font face=&quot;Verdana&quot;&gt;POD D&lt;/font&gt;&lt;/div&gt;" style="rounded=1;whiteSpace=wrap;html=1;arcSize=7;align=center;labelPosition=center;verticalLabelPosition=middle;verticalAlign=top;" vertex="1" parent="1">
          <mxGeometry x="914" y="170" width="160" height="160" as="geometry" />
        </mxCell>
        <mxCell id="w4B59_CVPUAiN3qROytd-50" style="edgeStyle=orthogonalEdgeStyle;rounded=0;orthogonalLoop=1;jettySize=auto;html=1;entryX=0.5;entryY=0;entryDx=0;entryDy=0;startArrow=none;startFill=0;endArrow=none;endFill=0;dashed=1;" edge="1" source="w4B59_CVPUAiN3qROytd-51" target="w4B59_CVPUAiN3qROytd-55" parent="1">
          <mxGeometry relative="1" as="geometry" />
        </mxCell>
        <mxCell id="w4B59_CVPUAiN3qROytd-51" value="&lt;div style=&quot;&quot;&gt;&lt;font face=&quot;Verdana&quot;&gt;eth0&lt;/font&gt;&lt;/div&gt;" style="rounded=1;whiteSpace=wrap;html=1;arcSize=20;align=center;labelPosition=center;verticalLabelPosition=middle;verticalAlign=top;" vertex="1" parent="1">
          <mxGeometry x="777" y="300" width="70" height="30" as="geometry" />
        </mxCell>
        <mxCell id="w4B59_CVPUAiN3qROytd-52" style="edgeStyle=orthogonalEdgeStyle;rounded=0;orthogonalLoop=1;jettySize=auto;html=1;entryX=0.5;entryY=0;entryDx=0;entryDy=0;startArrow=none;startFill=0;endArrow=none;endFill=0;dashed=1;" edge="1" source="w4B59_CVPUAiN3qROytd-53" target="w4B59_CVPUAiN3qROytd-56" parent="1">
          <mxGeometry relative="1" as="geometry" />
        </mxCell>
        <mxCell id="w4B59_CVPUAiN3qROytd-53" value="&lt;div style=&quot;&quot;&gt;&lt;font face=&quot;Verdana&quot;&gt;eth0&lt;/font&gt;&lt;/div&gt;" style="rounded=1;whiteSpace=wrap;html=1;arcSize=20;align=center;labelPosition=center;verticalLabelPosition=middle;verticalAlign=top;" vertex="1" parent="1">
          <mxGeometry x="981" y="300" width="70" height="30" as="geometry" />
        </mxCell>
        <mxCell id="w4B59_CVPUAiN3qROytd-54" value="&lt;div style=&quot;&quot;&gt;&lt;font face=&quot;Verdana&quot;&gt;eth0&lt;/font&gt;&lt;/div&gt;" style="rounded=1;whiteSpace=wrap;html=1;arcSize=20;align=center;labelPosition=center;verticalLabelPosition=middle;verticalAlign=top;" vertex="1" parent="1">
          <mxGeometry x="940" y="480" width="70" height="30" as="geometry" />
        </mxCell>
        <mxCell id="w4B59_CVPUAiN3qROytd-55" value="&lt;div style=&quot;&quot;&gt;&lt;font face=&quot;Verdana&quot;&gt;lxc0&lt;/font&gt;&lt;/div&gt;" style="rounded=1;whiteSpace=wrap;html=1;arcSize=20;align=center;labelPosition=center;verticalLabelPosition=middle;verticalAlign=top;" vertex="1" parent="1">
          <mxGeometry x="777" y="360" width="70" height="30" as="geometry" />
        </mxCell>
        <mxCell id="w4B59_CVPUAiN3qROytd-56" value="&lt;div style=&quot;&quot;&gt;&lt;font face=&quot;Verdana&quot;&gt;lxc1&lt;/font&gt;&lt;/div&gt;" style="rounded=1;whiteSpace=wrap;html=1;arcSize=20;align=center;labelPosition=center;verticalLabelPosition=middle;verticalAlign=top;" vertex="1" parent="1">
          <mxGeometry x="981" y="360" width="70" height="30" as="geometry" />
        </mxCell>
        <mxCell id="w4B59_CVPUAiN3qROytd-57" value="&lt;font face=&quot;Verdana&quot;&gt;Container&lt;/font&gt;" style="rounded=1;whiteSpace=wrap;html=1;arcSize=20;align=center;labelPosition=center;verticalLabelPosition=middle;verticalAlign=top;" vertex="1" parent="1">
          <mxGeometry x="733.75" y="210" width="111.5" height="30" as="geometry" />
        </mxCell>
        <mxCell id="w4B59_CVPUAiN3qROytd-58" value="&lt;font face=&quot;Verdana&quot;&gt;...&lt;/font&gt;" style="rounded=1;whiteSpace=wrap;html=1;arcSize=20;align=center;labelPosition=center;verticalLabelPosition=middle;verticalAlign=top;" vertex="1" parent="1">
          <mxGeometry x="733.75" y="250" width="111.5" height="30" as="geometry" />
        </mxCell>
        <mxCell id="w4B59_CVPUAiN3qROytd-59" value="&lt;font face=&quot;Verdana&quot;&gt;Container&lt;/font&gt;" style="rounded=1;whiteSpace=wrap;html=1;arcSize=20;align=center;labelPosition=center;verticalLabelPosition=middle;verticalAlign=top;" vertex="1" parent="1">
          <mxGeometry x="939.5" y="210" width="111.5" height="30" as="geometry" />
        </mxCell>
        <mxCell id="w4B59_CVPUAiN3qROytd-60" value="&lt;font face=&quot;Verdana&quot;&gt;...&lt;/font&gt;" style="rounded=1;whiteSpace=wrap;html=1;arcSize=20;align=center;labelPosition=center;verticalLabelPosition=middle;verticalAlign=top;" vertex="1" parent="1">
          <mxGeometry x="939.5" y="250" width="111.5" height="30" as="geometry" />
        </mxCell>
        <mxCell id="w4B59_CVPUAiN3qROytd-61" value="" style="endArrow=none;html=1;rounded=0;entryX=0.5;entryY=1;entryDx=0;entryDy=0;strokeWidth=3;" edge="1" parent="1" target="w4B59_CVPUAiN3qROytd-13">
          <mxGeometry width="50" height="50" relative="1" as="geometry">
            <mxPoint x="465" y="600" as="sourcePoint" />
            <mxPoint x="464" y="540" as="targetPoint" />
          </mxGeometry>
        </mxCell>
        <mxCell id="w4B59_CVPUAiN3qROytd-64" value="" style="endArrow=none;html=1;rounded=0;entryX=0.5;entryY=1;entryDx=0;entryDy=0;strokeWidth=3;" edge="1" parent="1" target="w4B59_CVPUAiN3qROytd-54">
          <mxGeometry width="50" height="50" relative="1" as="geometry">
            <mxPoint x="975" y="600" as="sourcePoint" />
            <mxPoint x="930" y="550" as="targetPoint" />
          </mxGeometry>
        </mxCell>
        <mxCell id="w4B59_CVPUAiN3qROytd-65" value="" style="endArrow=none;html=1;rounded=0;strokeWidth=3;" edge="1" parent="1">
          <mxGeometry width="50" height="50" relative="1" as="geometry">
            <mxPoint x="130" y="600" as="sourcePoint" />
            <mxPoint x="1550" y="600" as="targetPoint" />
          </mxGeometry>
        </mxCell>
        <mxCell id="w4B59_CVPUAiN3qROytd-66" value="&lt;div style=&quot;&quot;&gt;&lt;span style=&quot;font-family: Verdana; background-color: initial;&quot;&gt;Node2&lt;/span&gt;&lt;/div&gt;" style="rounded=1;whiteSpace=wrap;html=1;arcSize=7;align=center;labelPosition=center;verticalLabelPosition=middle;verticalAlign=top;" vertex="1" parent="1">
          <mxGeometry x="800" y="760" width="605" height="370" as="geometry" />
        </mxCell>
        <mxCell id="w4B59_CVPUAiN3qROytd-67" value="&lt;div style=&quot;&quot;&gt;&lt;font face=&quot;Verdana&quot;&gt;POD C&lt;/font&gt;&lt;/div&gt;" style="rounded=1;whiteSpace=wrap;html=1;arcSize=7;align=center;labelPosition=center;verticalLabelPosition=middle;verticalAlign=top;" vertex="1" parent="1">
          <mxGeometry x="840" y="800" width="250" height="160" as="geometry" />
        </mxCell>
        <mxCell id="w4B59_CVPUAiN3qROytd-68" style="edgeStyle=orthogonalEdgeStyle;rounded=0;orthogonalLoop=1;jettySize=auto;html=1;entryX=0.5;entryY=0;entryDx=0;entryDy=0;startArrow=none;startFill=0;endArrow=none;endFill=0;dashed=1;" edge="1" source="w4B59_CVPUAiN3qROytd-69" target="w4B59_CVPUAiN3qROytd-70" parent="1">
          <mxGeometry relative="1" as="geometry" />
        </mxCell>
        <mxCell id="w4B59_CVPUAiN3qROytd-69" value="&lt;div style=&quot;&quot;&gt;&lt;font face=&quot;Verdana&quot;&gt;eth0&lt;/font&gt;&lt;/div&gt;" style="rounded=1;whiteSpace=wrap;html=1;arcSize=20;align=center;labelPosition=center;verticalLabelPosition=middle;verticalAlign=top;" vertex="1" parent="1">
          <mxGeometry x="957" y="930" width="70" height="30" as="geometry" />
        </mxCell>
        <mxCell id="w4B59_CVPUAiN3qROytd-70" value="&lt;div style=&quot;&quot;&gt;&lt;font face=&quot;Verdana&quot;&gt;lxc0&lt;/font&gt;&lt;/div&gt;" style="rounded=1;whiteSpace=wrap;html=1;arcSize=20;align=center;labelPosition=center;verticalLabelPosition=middle;verticalAlign=top;" vertex="1" parent="1">
          <mxGeometry x="957" y="1020" width="70" height="30" as="geometry" />
        </mxCell>
        <mxCell id="w4B59_CVPUAiN3qROytd-71" value="&lt;div style=&quot;&quot;&gt;&lt;font face=&quot;Verdana&quot;&gt;APP&lt;/font&gt;&lt;/div&gt;" style="rounded=1;whiteSpace=wrap;html=1;arcSize=20;align=center;labelPosition=center;verticalLabelPosition=middle;verticalAlign=top;" vertex="1" parent="1">
          <mxGeometry x="860" y="840" width="50" height="30" as="geometry" />
        </mxCell>
        <mxCell id="w4B59_CVPUAiN3qROytd-72" value="&lt;div style=&quot;&quot;&gt;&lt;font face=&quot;Verdana&quot;&gt;Service Mesh Proxy&lt;/font&gt;&lt;/div&gt;" style="rounded=1;whiteSpace=wrap;html=1;arcSize=20;align=center;labelPosition=center;verticalLabelPosition=middle;verticalAlign=top;" vertex="1" parent="1">
          <mxGeometry x="927" y="840" width="143" height="30" as="geometry" />
        </mxCell>
        <mxCell id="w4B59_CVPUAiN3qROytd-73" value="&lt;div style=&quot;&quot;&gt;&lt;font face=&quot;Verdana&quot;&gt;loopback&lt;/font&gt;&lt;/div&gt;" style="rounded=1;whiteSpace=wrap;html=1;arcSize=20;align=center;labelPosition=center;verticalLabelPosition=middle;verticalAlign=top;" vertex="1" parent="1">
          <mxGeometry x="860" y="930" width="70" height="30" as="geometry" />
        </mxCell>
        <mxCell id="w4B59_CVPUAiN3qROytd-74" value="&lt;div style=&quot;&quot;&gt;&lt;font face=&quot;Verdana&quot;&gt;POD D&lt;/font&gt;&lt;/div&gt;" style="rounded=1;whiteSpace=wrap;html=1;arcSize=7;align=center;labelPosition=center;verticalLabelPosition=middle;verticalAlign=top;" vertex="1" parent="1">
          <mxGeometry x="1120" y="800" width="250" height="160" as="geometry" />
        </mxCell>
        <mxCell id="w4B59_CVPUAiN3qROytd-75" style="edgeStyle=orthogonalEdgeStyle;rounded=0;orthogonalLoop=1;jettySize=auto;html=1;entryX=0.5;entryY=0;entryDx=0;entryDy=0;startArrow=none;startFill=0;endArrow=none;endFill=0;dashed=1;" edge="1" source="w4B59_CVPUAiN3qROytd-76" target="w4B59_CVPUAiN3qROytd-77" parent="1">
          <mxGeometry relative="1" as="geometry" />
        </mxCell>
        <mxCell id="w4B59_CVPUAiN3qROytd-76" value="&lt;div style=&quot;&quot;&gt;&lt;font face=&quot;Verdana&quot;&gt;eth0&lt;/font&gt;&lt;/div&gt;" style="rounded=1;whiteSpace=wrap;html=1;arcSize=20;align=center;labelPosition=center;verticalLabelPosition=middle;verticalAlign=top;" vertex="1" parent="1">
          <mxGeometry x="1237" y="930" width="70" height="30" as="geometry" />
        </mxCell>
        <mxCell id="w4B59_CVPUAiN3qROytd-77" value="&lt;div style=&quot;&quot;&gt;&lt;font face=&quot;Verdana&quot;&gt;lxc1&lt;/font&gt;&lt;/div&gt;" style="rounded=1;whiteSpace=wrap;html=1;arcSize=20;align=center;labelPosition=center;verticalLabelPosition=middle;verticalAlign=top;" vertex="1" parent="1">
          <mxGeometry x="1237" y="1020" width="70" height="30" as="geometry" />
        </mxCell>
        <mxCell id="w4B59_CVPUAiN3qROytd-78" value="&lt;div style=&quot;&quot;&gt;&lt;font face=&quot;Verdana&quot;&gt;APP&lt;/font&gt;&lt;/div&gt;" style="rounded=1;whiteSpace=wrap;html=1;arcSize=20;align=center;labelPosition=center;verticalLabelPosition=middle;verticalAlign=top;" vertex="1" parent="1">
          <mxGeometry x="1140" y="840" width="50" height="30" as="geometry" />
        </mxCell>
        <mxCell id="w4B59_CVPUAiN3qROytd-79" value="&lt;div style=&quot;&quot;&gt;&lt;font face=&quot;Verdana&quot;&gt;Service Mesh Proxy&lt;/font&gt;&lt;/div&gt;" style="rounded=1;whiteSpace=wrap;html=1;arcSize=20;align=center;labelPosition=center;verticalLabelPosition=middle;verticalAlign=top;" vertex="1" parent="1">
          <mxGeometry x="1207" y="840" width="143" height="30" as="geometry" />
        </mxCell>
        <mxCell id="w4B59_CVPUAiN3qROytd-80" value="&lt;div style=&quot;&quot;&gt;&lt;font face=&quot;Verdana&quot;&gt;loopback&lt;/font&gt;&lt;/div&gt;" style="rounded=1;whiteSpace=wrap;html=1;arcSize=20;align=center;labelPosition=center;verticalLabelPosition=middle;verticalAlign=top;" vertex="1" parent="1">
          <mxGeometry x="1140" y="930" width="70" height="30" as="geometry" />
        </mxCell>
        <mxCell id="w4B59_CVPUAiN3qROytd-81" value="&lt;div style=&quot;&quot;&gt;&lt;font face=&quot;Verdana&quot;&gt;eth0&lt;/font&gt;&lt;/div&gt;" style="rounded=1;whiteSpace=wrap;html=1;arcSize=20;align=center;labelPosition=center;verticalLabelPosition=middle;verticalAlign=top;" vertex="1" parent="1">
          <mxGeometry x="1167" y="1100" width="70" height="30" as="geometry" />
        </mxCell>
        <mxCell id="w4B59_CVPUAiN3qROytd-82" value="&lt;div style=&quot;&quot;&gt;&lt;span style=&quot;font-family: Verdana; background-color: initial;&quot;&gt;Client&lt;/span&gt;&lt;/div&gt;" style="rounded=1;whiteSpace=wrap;html=1;arcSize=7;align=center;labelPosition=center;verticalLabelPosition=middle;verticalAlign=top;" vertex="1" parent="1">
          <mxGeometry x="1270" y="320" width="260" height="190" as="geometry" />
        </mxCell>
        <mxCell id="w4B59_CVPUAiN3qROytd-83" value="&lt;div style=&quot;&quot;&gt;&lt;font face=&quot;Verdana&quot;&gt;eth0&lt;/font&gt;&lt;/div&gt;" style="rounded=1;whiteSpace=wrap;html=1;arcSize=20;align=center;labelPosition=center;verticalLabelPosition=middle;verticalAlign=top;" vertex="1" parent="1">
          <mxGeometry x="1365" y="480" width="70" height="30" as="geometry" />
        </mxCell>
        <mxCell id="w4B59_CVPUAiN3qROytd-84" value="" style="endArrow=none;html=1;rounded=0;entryX=0.5;entryY=1;entryDx=0;entryDy=0;strokeWidth=3;" edge="1" parent="1">
          <mxGeometry width="50" height="50" relative="1" as="geometry">
            <mxPoint x="1399.5" y="600" as="sourcePoint" />
            <mxPoint x="1399.5" y="510" as="targetPoint" />
          </mxGeometry>
        </mxCell>
      </root>
    </mxGraphModel>
  </diagram>
</mxfile>
